<?xml version="1.0" encoding="UTF-8"?> <svg xmlns="http://www.w3.org/2000/svg" width="484.275" height="401.3623" viewBox="0 0 484.275 401.3623"><defs><style>.cls-1{fill:#fff;}</style></defs><title>Logo</title><g id="Layer_2" data-name="Layer 2"><g id="Layer_1-2" data-name="Layer 1"><path class="cls-1" d="M129.7908,332.1062c-5.6738-1.0254-3.9648-12.5782,5.1953-34.4532,3.5547-8.4082,8.4082-22.9,3.0762-26.1816-11.0742-6.8359-33.7695,6.6992-39.375,21.9434-5.1953,14.2871,1.9141,21.26,9.6387,21.26,7.6562,0,15.791-8.2715,15.791-15.791,0-3.6914-1.6406-6.8359-6.2207-5.4687-2.0508.6152-1.6406-.3418-.3418-.9571,5.81-2.7343,9.57,1.0938,9.57,6.2891,0,8.6816-11.3477,17.7051-19.8926,17.7051-9.4336,0-18.5254-10.6641-12.1679-25.2246,7.3828-16.8848,30.625-27.2071,42.7246-21.875,9.98,4.375,6.9726,18.32,1.709,29.1211a109.4855,109.4855,0,0,0-8.75,25.84c-2.6661,15.4492,16.5429-4.9219,18.8671-7.6562,7.3145-8.545,13.3985-19.6192,12.0313-27.959-.6152-3.5547-1.709-3.2129-3.2813-3.4864-2.3925-.4785-2.4609-2.5293.2735-1.8457,3.35.8887,9.3652,5.6055,5.4687,15.7227C157.5447,316.3835,138.6092,333.6784,129.7908,332.1062Z"></path><path class="cls-1" d="M166.4344,324.1765a4.4721,4.4721,0,0,0,3.0761-1.2988c2.2559-2.2559,4.5118-6.4942,6.4258-10.3223.5469-1.2305,1.5039-.752.8887.6152-1.7773,3.8281-5.6738,12.51-10.7324,12.51-5.127,0-5.127-5.332-3.6914-8.8867l4.375-11.1426a2.9511,2.9511,0,0,0-.6836-2.8711l3.76-.0684c2.1875,0,2.1875.752,1.4356,2.3926l-5.4688,12.7832s-.6836,1.5039-.82,1.9824C164.3836,322.1257,164.52,324.04,166.4344,324.1765Zm4.9219-24.2676a2.3526,2.3526,0,0,1-2.3926-2.8027,3.4853,3.4853,0,0,1,3.2812-2.8028,2.3216,2.3216,0,0,1,2.3926,2.8028A3.4264,3.4264,0,0,1,171.3563,299.9089Z"></path><path class="cls-1" d="M179.7644,312.487c-.3417,1.1621-1.0253,2.8028-1.4355,4.5117-2.0508,8.2032,3.418,9.3653,7.041,4.3067a71.9525,71.9525,0,0,0,5.0586-8.6817c.6153-1.1621,1.6406-1.0253,1.0254.3418-1.709,3.6231-5.2637,12.8516-12.168,12.8516-7.6562,0-4.375-9.3652-3.2129-13.4668A109.9159,109.9159,0,0,1,186.4637,288.22c4.8535-8.1348,12.2363-7.1778,7.3144,3.76C190.6336,299.02,186.4637,306.403,179.7644,312.487Zm11.3477-24.6093c-3.35,4.7168-8.6816,16.9531-10.8008,22.4218,4.8535-4.9218,9.7754-12.9883,12.4414-19.3457C194.12,287.8093,194.8035,282.614,191.1121,287.8777Z"></path><path class="cls-1" d="M205.0574,325.8171c-2.2558.1367-5.4687-1.6406-3.418-8.8184a35.0746,35.0746,0,0,1-4.9218,6.4258c-7.8613,7.52-13.0567-4.4433-2.7344-16.8164,4.1016-4.8535,11.9629-7.3828,15.8594-3.1445.957,1.0254.41,2.1875-.752,1.9824-.7519-2.5293-3.2812-3.0762-5.81-1.709-3.0762,1.709-6.6309,5.7422-9.0918,9.7754a24.4882,24.4882,0,0,0-2.8028,6.9043c-.6835,4.7852,3.0762,4.2383,6.2891.41a55.39,55.39,0,0,0,6.084-9.57c1.5039-2.8711,2.4609-4.5118,4.6484-4.375a10.0016,10.0016,0,0,0,2.8711.2734c-1.4355,1.4355-5.4687,8.6133-6.3574,12.7832-.5469,2.8027-.2051,4.1016.6836,4.1016,2.8711.1367,7.3828-8.545,8.8184-11.4844.6152-1.2305,1.6406-.82.957.5469C213.3289,317.2722,209.159,325.4753,205.0574,325.8171Z"></path><path class="cls-1" d="M309.5115,277.4187c-.82,0-2.3242.5468-2.9394.5468-8.8867,15.1758-10.5274,32.8125-22.7637,51.8165-7.998,12.4414-22.627,19.5507-31.5137,20.7812-19.414,2.666-33.7695-6.3574-26.5918-23.4473,1.8457-4.4433,7.52-8.6132,9.7071-8.6816,1.4355-.0684.6836.6152-.0684.957-2.3926.9571-7.041,5.127-8.6133,10.7324-4.3066,14.9708,13.74,20.6446,24.7461,18.252,23.9942-5.332,35.6836-35.1367,42.1094-49.3555a184.8848,184.8848,0,0,1,10.9375-20.7812c-11.0059,1.7773-30.0781,9.16-32.2656,22.4219-.9571,6.289,2.1191,10.5957,7.8613,8.4765,7.3144-2.5976,7.3144-10.7324,6.2891-11.8262-1.0938-.6835.3418-1.914,1.4355-.5468,2.2559,5.2636-2.0508,11.9629-7.793,14.0136-7.3144,2.5293-13.6718-2.4609-12.373-10.5273,2.5293-15.791,25.498-22.2168,38.0078-23.7891.6152-1.0254,3.2812-4.7851,5.5371-5.4687,2.0508-.5469,3.8281-.0684,3.8281,1.7773C314.98,275.573,312.1775,276.5984,309.5115,277.4187Zm-1.709-1.1621c6.084-1.0254,4.7168-3.2813,3.9649-3.2813C311.0154,272.6335,308.9646,275.0261,307.8025,276.2566Z"></path><path class="cls-1" d="M302.951,325.9538a6.3075,6.3075,0,0,1-6.5625-6.5625c-.0684-4.1015,2.2558-9.2285,5.2636-12.7832,3.4864-4.1015,8.6817-6.6992,11.69-4.4433,2.5977,1.9824.6152,6.6308-3.76,9.98a19.3252,19.3252,0,0,1-8.4082,3.0078c-1.0254,2.461-2.1875,9.3653,2.3243,9.3653,6.0156,0,9.707-8.0664,11.2792-11.69.5469-1.23,1.9141-1.3672,1.2305.0684C313.4783,318.3659,310.5389,325.9538,302.951,325.9538Zm2.8027-18.3886a40.9649,40.9649,0,0,0-4.1016,6.4257,14.2224,14.2224,0,0,0,7.2461-3.0078C314.5037,306.2663,314.1619,297.38,305.7537,307.5652Z"></path><path class="cls-1" d="M318.742,312.487c-.3418,1.1621-1.0254,2.8028-1.4356,4.5117-2.0507,8.2032,3.418,9.3653,7.0411,4.3067a71.9661,71.9661,0,0,0,5.0586-8.6817c.6152-1.1621,1.6406-1.0253,1.0253.3418-1.7089,3.6231-5.2636,12.8516-12.1679,12.8516-7.6563,0-4.375-9.3652-3.2129-13.4668A109.9156,109.9156,0,0,1,325.4412,288.22c4.8535-8.1348,12.2363-7.1778,7.3145,3.76C329.6111,299.02,325.4412,306.403,318.742,312.487ZM330.09,287.8777c-3.35,4.7168-8.6816,16.9531-10.8007,22.4218,4.8535-4.9218,9.7754-12.9883,12.4414-19.3457C333.0975,287.8093,333.7811,282.614,330.09,287.8777Z"></path><path class="cls-1" d="M334.26,325.9538a6.3075,6.3075,0,0,1-6.5625-6.5625c-.0684-4.1015,2.2558-9.2285,5.2636-12.7832,3.4864-4.1015,8.6817-6.6992,11.69-4.4433,2.5977,1.9824.6152,6.6308-3.76,9.98a19.3252,19.3252,0,0,1-8.4082,3.0078c-1.0254,2.461-2.1875,9.3653,2.3242,9.3653,6.0157,0,9.7071-8.0664,11.2793-11.69.5469-1.23,1.9141-1.3672,1.2305.0684C344.7869,318.3659,341.8475,325.9538,334.26,325.9538Zm2.8027-18.3886a40.9649,40.9649,0,0,0-4.1016,6.4257,14.2224,14.2224,0,0,0,7.2461-3.0078C345.8123,306.2663,345.4705,297.38,337.0623,307.5652Z"></path><path class="cls-1" d="M358.8689,325.9538c-2.3925,0-5.6738-1.6406-3.623-7.998a35.1078,35.1078,0,0,1,3.76-7.1778c1.6406-2.666.41-4.5117-4.8536.41-2.3242,2.1191-5.6738,5.9473-9.5019,13.5352-.5469.957-1.1621,1.0253-2.5977,1.0253a4.7277,4.7277,0,0,0-2.3242.41c3.2813-6.4941,6.084-12.9883,9.4336-19.1406,1.7774-3.2813,2.666-4.4434,4.8535-4.3067a9.9981,9.9981,0,0,0,2.8711.2735c-2.0508,1.0937-5.81,7.93-8.2715,12.8515a50.6849,50.6849,0,0,1,5.6739-6.1523c3.2812-2.94,10.3222-7.2461,12.6465-6.4258,0,0-7.3145,12.8516-8.2032,17.6367-.5468,2.8028.2051,3.418,1.0938,3.418,3.5547,0,7.93-8.9551,9.3652-11.8262.5469-1.23,1.6406-.7519.957.6153C368.0975,317.2722,364.1326,325.9538,358.8689,325.9538Z"></path><path class="cls-1" d="M383.7527,325.8171c-2.2558.1367-5.4687-1.6406-3.4179-8.8184a35.08,35.08,0,0,1-4.9219,6.4258c-7.8613,7.52-13.0566-4.4433-2.7344-16.8164,4.1016-4.8535,11.9629-7.3828,15.8594-3.1445.957,1.0254.41,2.1875-.752,1.9824-.7519-2.5293-3.2812-3.0762-5.8105-1.709-3.0762,1.709-6.6309,5.7422-9.0918,9.7754a24.4855,24.4855,0,0,0-2.8027,6.9043c-.6836,4.7852,3.0761,4.2383,6.289.41a55.39,55.39,0,0,0,6.084-9.57c1.5039-2.8711,2.4609-4.5118,4.6484-4.375a10.0016,10.0016,0,0,0,2.8711.2734c-1.4355,1.4355-5.4687,8.6133-6.3574,12.7832-.5469,2.8027-.2051,4.1016.6836,4.1016,2.8711.1367,7.3828-8.545,8.8184-11.4844.6152-1.2305,1.6406-.82.957.5469C392.0242,317.2722,387.8543,325.4753,383.7527,325.8171Z"></path><path class="cls-1" d="M96.1822,164.9845C125.9675,166.85,158.6443,193,158.6443,193c-24.28-28.2112-50.9871-37.88-67.6025-41.1651A73.4649,73.4649,0,0,0,74.7361,150.19c26.72,52.71,66.9962,47.3619,79.8166,44.0643C143.8963,187.9574,107.3835,166.7477,96.1822,164.9845Z"></path><path class="cls-1" d="M92.8654,112.5335c2.4238,19.819,21.1776,40.6123,21.1776,40.6123-19.8013-15.1028-27.3129-32.56-30.1606-43.5246A49.0858,49.0858,0,0,1,82.14,98.7927c36.2572,15.7661,34.2767,42.88,32.58,51.57C110.0925,143.4919,94.4859,119.9434,92.8654,112.5335Z"></path><path class="cls-1" d="M220.8175,254.82s-63.8963-58.918-119.2738-41.52C43,231.69,73.1451,270.92,161.18,251.751c-49.9283,6.9344-92.2938-9.9392-60.3455-23.4279C132.7827,214.8318,178.9289,223.1029,220.8175,254.82Z"></path><path class="cls-1" d="M149.4713,254.82S85.575,195.9019,30.1988,213.3C-28.3449,231.69,1.8,270.92,89.835,251.751c-49.9283,6.9344-92.2951-9.9392-60.3468-23.4279C61.4364,214.8318,107.584,223.1029,149.4713,254.82Z"></path><path class="cls-1" d="M112.7155,249.6689s-11.3092-64.2458-52.2713-79.0683c-43.3048-15.6761-43.1751,21.4563,18.083,50.0915-32.9492-18.5907-50.549-47.9428-25.3453-41.45S102.158,211.6756,112.7155,249.6689Z"></path><path class="cls-1" d="M388.0928,164.9845C358.3074,166.85,325.6306,193,325.6306,193c24.28-28.2112,50.9872-37.88,67.6026-41.1651a73.4639,73.4639,0,0,1,16.3056-1.6449c-26.72,52.71-66.9962,47.3619-79.8166,44.0643C340.3787,187.9574,376.8915,166.7477,388.0928,164.9845Z"></path><path class="cls-1" d="M391.41,112.5335c-2.4237,19.819-21.1776,40.6123-21.1776,40.6123,19.8014-15.1028,27.3129-32.56,30.1607-43.5246a49.0858,49.0858,0,0,0,1.7426-10.8285c-36.2573,15.7661-34.2768,42.88-32.58,51.57C374.1825,143.4919,389.789,119.9434,391.41,112.5335Z"></path><path class="cls-1" d="M263.4575,254.82s63.8962-58.918,119.2737-41.52c58.5438,18.39,28.3986,57.62-59.6362,38.451,49.9283,6.9344,92.2938-9.9392,60.3455-23.4279C351.4923,214.8318,305.346,223.1029,263.4575,254.82Z"></path><path class="cls-1" d="M334.8037,254.82S398.7,195.9019,454.0762,213.3c58.5437,18.39,28.3985,57.62-59.6363,38.451,49.9284,6.9344,92.2952-9.9392,60.3469-23.4279C422.8385,214.8318,376.691,223.1029,334.8037,254.82Z"></path><path class="cls-1" d="M371.56,249.6689s11.3091-64.2458,52.2713-79.0683c43.3048-15.6761,43.175,21.4563-18.083,50.0915,32.9492-18.5907,50.5489-47.9428,25.3453-41.45S382.1169,211.6756,371.56,249.6689Z"></path><path class="cls-1" d="M289.24,387.46s19.2964-17.793,36.02-12.5388c17.68,5.5537,8.5762,17.401-18.01,11.612,15.0781,2.0942,27.8727-3.0016,18.2245-7.0751S301.89,377.8818,289.24,387.46Z"></path><path class="cls-1" d="M195.5132,387.46s-19.2964-17.793-36.02-12.5388c-17.68,5.5537-8.5763,17.401,18.01,11.612-15.0782,2.0942-27.8728-3.0016-18.2245-7.0751S182.8635,377.8818,195.5132,387.46Z"></path><path class="cls-1" d="M343.2808,62.4725C323.9155,60.5141,266.6643,50.4874,243.4577,0c-23.2068,50.4874-80.4567,60.5141-99.8223,62.4725-29.9164,70.96,19.3143,104.671,62.8749,134.4884,14.7057,10.0677,28.24,19.3334,36.9474,29.4369,8.7067-10.1035,22.2414-19.3692,36.9484-29.4369C323.9667,167.1435,373.1972,133.4321,343.2808,62.4725ZM243.17,181.8387h-2.0078c-17.4967-42.311-34.7095-88.6376-34.7095-88.6376-4.0157-10.3273-8.6053-10.47-13.4809-10.47V80.866H231.409v1.8649c-11.7612,0-8.8913,11.617-8.4613,12.621l26.39,70.71ZM267.045,126.481c-1.6511,0-2.9344,1.0265-2.9344,3.4106v15.2963c0,8.4722-3.8157,11.92-9.7941,12.7995l-.1462-.4385c3.1537-1.1372,6.1633-3.9254,6.1633-11.8858V134.3662c0-7.006-.0387-7.8852-2.7152-7.8852V126.04h9.4266Zm26.9-43.75c-9.4675,0-12.9093-.1441-25.96,34.2784l-1.7219-.574c4.4456-13.3379,12.765-33.7044-7.8873-33.7044V80.866h35.5694Z"></path><path class="cls-1" d="M211.5817,401.3c-4.6264,0-6.7253-3.8246-6.7253-8.0192,0-9.3783,11.8455-28.3811,22.2114-28.3811,4.2565,0,5.7378,3.0246,5.7378,6.8492C232.8056,381.4976,222.7493,401.3,211.5817,401.3Zm15.548-35.2269c-8.0828,0-18.5709,22.3955-18.5709,29.3669,0,2.5291.8637,4.6264,3.7627,4.6264,8.3908,0,18.1391-22.0859,18.1391-29.4908C230.4606,368.2946,229.7827,366.0735,227.13,366.0735Z"></path><path class="cls-1" d="M258.5973,366.5053,240.15,400.3145a10.9109,10.9109,0,0,1-3.2087.4319c-.1221,0-.4318-.1239-.554-.1239l-.0619-.37c5.6139-9.934,11.1057-19.8664,16.6577-29.7368a67.2665,67.2665,0,0,1-10.0562,7.5873h-.2477l-.2461-.4938.1239-.37a88.4587,88.4587,0,0,0,11.29-9.5c.6779-.74,1.7274-1.9132,2.7768-2.0353l1.9115-.1858a.4053.4053,0,0,1,.37.0619v.308Z"></path><path class="cls-1" d="M264.6464,394.3909c1.6035.8018,6.9714,3.5167,8.4527,3.5167,3.4547,0,6.17-4.2565,6.9714-4.5042l.4319.3716v.246c-1.9751,2.4069-6.4777,7.3413-9.7483,7.3413-1.7893,0-8.1431-3.0229-9.6244-3.6388l-4.3184,3.3928-.8018-.4938a69.19,69.19,0,0,1,6.0458-6.6634,2.5339,2.5339,0,0,1,1.3575.0619c5.0582-4.5042,19.2488-17.2753,19.2488-24.3087,0-1.9115-1.1717-2.7132-2.961-2.7132-4.69,0-8.6385,5.552-10.18,9.5624l-.2477.2461h-.74l-.1239-.37c1.9132-5.3679,6.7254-11.3518,12.9569-11.3518,3.1468,0,5.614,1.7893,5.614,5.12C286.98,376.87,269.3347,390.5043,264.6464,394.3909Z"></path></g></g></svg> 