<?xml version="1.0" encoding="utf-8"?>
<!-- Generator: Adobe Illustrator 12.0.0, SVG Export Plug-In . SVG Version: 6.00 Build 51448)  -->
<!DOCTYPE svg PUBLIC "-//W3C//DTD SVG 1.1//EN" "http://www.w3.org/Graphics/SVG/1.1/DTD/svg11.dtd" [
	<!ENTITY ns_svg "http://www.w3.org/2000/svg">
	<!ENTITY ns_xlink "http://www.w3.org/1999/xlink">
]>
<svg  version="1.1" id="Layer_1" xmlns="&ns_svg;" xmlns:xlink="&ns_xlink;" width="180.936" height="243.648"
	 viewBox="0 0 180.936 243.648" overflow="visible" enable-background="new 0 0 180.936 243.648" xml:space="preserve">
<g>
	<path fill-rule="evenodd" clip-rule="evenodd" d="M180.864,157.752c-2.088,47.592-41.904,85.896-90.36,85.896
		c-48.528,0-88.344-38.304-90.432-85.896H0v-1.944V0h180.936L180.864,157.752z"/>
	<path fill-rule="evenodd" clip-rule="evenodd" fill="#FFFFFF" d="M177.12,152.136c0,47.304-38.952,86.04-86.616,86.04
		c-47.736,0-86.688-38.736-86.688-86.04V24.048H177.12V152.136z"/>
	<path fill-rule="evenodd" clip-rule="evenodd" d="M161.64,178.056l3.816,1.296c0.72,0.216,0.648,0.648,0.288,1.584l0.72,0.216
		l1.512-4.608l-0.648-0.216c-0.36,1.08-0.504,1.296-1.296,1.08l-4.392-1.512V178.056L161.64,178.056z M161.64,189.504v-2.088H162
		c0.864-0.072,1.08-0.144,1.512-0.792l0.576,0.36l-1.368,2.232C162.288,189.432,162,189.432,161.64,189.504L161.64,189.504z
		 M161.64,183.96v-2.232l2.232,1.008c0.792,0.36,0.936,0.144,1.44-0.864l0.648,0.288l-2.088,4.392l-0.576-0.288
		c0.36-0.936,0.576-1.296-0.144-1.584L161.64,183.96z M157.968,178.2c0.288-0.936,0.36-1.224,1.008-1.008l2.664,0.864v-2.16
		l-1.728-0.576c-0.792-0.288-0.72-0.576-0.432-1.656l-0.648-0.216l-1.584,4.536L157.968,178.2L157.968,178.2z M161.64,181.728v2.232
		l-4.752-2.16c-0.576-0.216-0.648,0-1.152,1.008l-0.648-0.36l2.016-4.32l0.648,0.288c-0.36,1.008-0.504,1.296,0.288,1.656
		L161.64,181.728L161.64,181.728z M161.64,187.416v2.088c-0.432,0-0.936,0-1.728,0c-2.592,0.144-2.664,0.288-3.024,1.224
		l2.232,1.296c0.216,0.144,0.432,0.288,0.576,0.216c0.36,0.072,0.504-0.216,1.008-0.936l0.648,0.36l-2.448,4.248l-0.576-0.432
		c0.36-0.72,0.504-0.936,0.36-1.224c0-0.144-0.216-0.216-0.36-0.288l-3.384-1.944v-2.376l1.224,0.648
		c0.576-0.936,0.72-1.224,0.792-1.728c0-0.72-0.504-1.224-1.152-1.584c-0.288-0.144-0.576-0.288-0.864-0.288v-1.872
		c0.792-0.216,1.44,0.072,1.872,0.216c0.432,0.36,0.864,0.792,1.152,1.512c0.288,1.008-0.144,1.8-0.36,2.376
		C158.4,187.776,158.76,187.56,161.64,187.416L161.64,187.416z M154.944,201.312v-2.088c0.432,0.288,0.72-0.072,1.224-0.72
		l0.576,0.432L154.944,201.312z M154.944,184.824v1.872c-0.288-0.072-0.504,0-0.792,0.072c-0.36,0.144-0.576,0.504-1.296,1.728
		l2.088,1.152v2.376l-2.52-1.368c-0.144-0.072-0.36-0.216-0.648-0.072c-0.144,0.072-0.216,0.072-0.72,0.864l-0.648-0.432l2.808-4.68
		c0.36-0.648,0.72-1.368,1.656-1.44L154.944,184.824L154.944,184.824z M154.944,199.224c-0.072,0-0.144-0.072-0.288-0.144
		l-5.76-4.464l0.288-0.432c0.36-0.504,0.72-1.008,1.656-0.936c0.648,0,1.08,0.288,1.512,0.432l0.432-0.504l-2.52-1.728l-1.656,2.16
		v3.456l4.824,3.672c0.576,0.576,0.36,0.792-0.216,1.512l0.576,0.504l1.152-1.44V199.224L154.944,199.224z M148.608,208.656v-1.224
		c0.072,0,0.216-0.072,0.36-0.216l1.08-1.224c0.36-0.36,0.576-0.72,0.504-1.368c-0.072-0.792-0.576-1.296-0.864-1.656l0.504-0.504
		l2.088,2.232L148.608,208.656z M148.608,193.608v3.456l-1.08-0.864l-0.36,0.504c-0.216,0.216-0.288,0.504-0.504,0.792
		c-0.288,1.008,0.432,1.656,0.936,2.232l-0.432,0.576l-2.232-1.944L148.608,193.608L148.608,193.608z M148.608,207.432v1.224
		l-2.016,2.16l-0.576-0.504c0.648-0.72,0.936-0.936,0.216-1.656l-3.888-3.672v-2.808l2.52,2.376l0.648-0.648
		c0.072-0.288,0.288-0.504,0.288-0.864c-0.144-0.36-0.432-0.576-0.576-0.864l0.504-0.504l2.592,2.376l-0.504,0.576
		c-0.288-0.288-0.576-0.504-0.864-0.576c-0.504-0.144-0.792,0.144-1.008,0.36l-0.504,0.648l2.376,2.16
		C148.104,207.504,148.248,207.648,148.608,207.432L148.608,207.432z M142.344,214.416l2.88-2.232l-0.432-0.576l-0.432,0.288
		c-0.504,0.504-0.864,0.288-1.224-0.216l-0.792-1.008V214.416L142.344,214.416z M142.344,202.176l1.44-1.512
		c0.288-0.36,1.008-1.008,2.376,0l0.504-0.504l-1.944-1.584l-2.376,2.52V202.176z M142.344,201.096v1.08l0,0l0,0v2.808l-0.864-0.72
		c-0.144-0.216-0.504-0.504-0.936-0.072c-0.144,0.072-0.36,0.288-0.576,0.504l-0.576-0.504L142.344,201.096L142.344,201.096z
		 M142.344,210.672l-3.168-3.96c-0.504-0.72-0.216-1.008,0.432-1.584l-0.432-0.576l-2.88,2.232l1.728,5.688
		c0.288,0.648,0.36,0.936,0.648,1.656c-1.224-0.72-1.656-0.936-2.88-1.728l-3.816-2.16l-0.36,0.288v2.952l3.456,4.248
		c0.288,0.432,0.576,0.72,0.216,1.224c-0.072,0.144-0.072,0.216-0.648,0.576l0.432,0.576l3.024-2.376l-0.432-0.576l-0.36,0.288
		c-0.144,0.144-0.432,0.288-0.72,0.216c-0.216,0-0.432-0.216-0.576-0.432l-2.16-2.736c-0.576-0.72-0.72-0.936-1.656-1.944
		c1.368,0.864,1.8,1.152,3.384,2.016l3.816,2.16l0.792-0.648l-1.512-5.256c-0.288-1.152-0.432-1.44-0.792-2.592
		c0.432,0.792,0.648,1.008,1.224,1.728l2.448,3.096c0.288,0.36,0.432,0.792-0.144,1.152l-0.432,0.36l0.432,0.576l0.936-0.72V210.672
		L142.344,210.672z M131.616,221.976v-0.792h0.072c0.432-0.36,0.72-0.576,0.792-1.224c0.144-0.72-0.144-1.368-0.216-1.8l0.576-0.432
		l1.368,2.736L131.616,221.976z M131.616,210.528v2.952l-0.36-0.504c-0.144-0.144-0.288-0.288-0.36-0.36
		c-0.504-0.288-0.864,0-1.368,0.432l-0.432-0.576L131.616,210.528L131.616,210.528z M131.616,221.184l-1.368,0.72
		c-0.648,0.36-0.864,0.144-1.08-0.216l-1.656-2.88l0.72-0.432c0.216-0.072,0.576-0.288,1.008,0c0.216,0.144,0.504,0.36,0.72,0.792
		l0.576-0.432l-1.8-3.024l-0.576,0.36c0.072,0.288,0.288,0.648,0.288,1.008c-0.072,0.36-0.288,0.504-0.576,0.72l-0.72,0.432
		l-1.8-3.024l1.872-1.08c0.36-0.216,1.296-0.648,2.304,0.792l0.648-0.36l-1.368-2.16l-6.624,3.816v0.36l0.216,0.36
		c0.216-0.144,0.576-0.288,0.648-0.288c0.576-0.288,0.792,0.144,0.936,0.36l3.312,5.544c0.432,0.936,0.144,1.008-0.792,1.512
		l0.432,0.576l4.68-2.664V221.184L131.616,221.184z M122.184,226.656v-1.512c0-0.072,0-0.072,0.072-0.144
		c0.072-0.36,0.144-1.08-0.072-2.016v-4.32c0.504,0.432,1.152,1.08,1.584,2.088c0.216,0.432,0.36,1.008,0.504,1.512
		c0.144,0.864,0,1.728-0.216,2.304C123.624,225.72,122.976,226.224,122.184,226.656z M122.184,216.216v0.36l-0.144-0.288
		L122.184,216.216L122.184,216.216z M122.184,218.664v4.32c-0.144-0.36-0.288-0.864-0.504-1.296
		c-0.144-0.432-0.432-0.936-0.72-1.296c-0.432-0.576-0.936-0.864-1.368-1.152c-1.224-0.504-2.304-0.144-2.952,0.216l-0.864,0.288
		l3.024,6.84c0.432,0.648,0.72,0.504,1.656,0.144c0.432-0.216,1.296-0.648,1.728-1.584v1.512c-0.216,0.144-0.432,0.216-0.648,0.36
		l-5.256,2.304l-0.288-0.648c1.08-0.504,1.224-0.72,0.72-1.728l-2.448-5.472c-0.288-0.792-0.648-0.72-1.656-0.288l-0.36-0.648
		c0.648-0.288,1.296-0.576,1.944-0.864c0.144-0.072,0.72-0.288,1.224-0.576c0.576-0.216,1.152-0.504,1.368-0.648
		c1.296-0.504,2.736-1.08,4.464-0.36C121.536,218.232,121.824,218.376,122.184,218.664L122.184,218.664z M102.888,225.648v-0.072
		V225.648L102.888,225.648L102.888,225.648z M102.888,222.696l0.072,0.576c0.936-0.144,1.224-0.216,1.44,0.432l1.296,6.624
		c0.072,0.792-0.216,0.864-1.296,1.08l0.216,0.72l4.752-1.008l-0.144-0.648c-1.152,0.216-1.368,0.144-1.512-0.648l-1.224-6.264
		c-0.216-0.864,0.072-0.936,1.152-1.224l-0.144-0.72l-4.608,0.936V222.696z M102.888,222.552v0.144V222.552L102.888,222.552
		L102.888,222.552z M102.888,225.576l-0.504-2.88l-8.352,0.936v3.024l0.576-0.072c0.072-0.72,0.072-1.8,0.936-2.232
		c0.36-0.144,0.72-0.216,1.008-0.288h0.504l0.864,7.272c0,0.864-0.36,0.936-1.368,1.008l0.144,0.792l4.824-0.648l-0.072-0.72
		c-1.008,0.144-1.368,0.216-1.512-0.576l-0.792-7.344l0.504-0.072c0.648-0.072,1.296-0.144,1.8,0.576
		c0.504,0.432,0.648,1.008,0.72,1.44l0.72-0.144V225.576L102.888,225.576z M94.032,231.192v-0.648l0.216,0.216
		C94.176,230.904,94.104,231.048,94.032,231.192z M94.032,223.632v3.024h-0.144l-0.144-3.024H94.032L94.032,223.632z
		 M94.032,230.544l-0.504-0.288c-0.144,0.288-0.504,0.864-1.152,1.44c-0.72,0.576-1.656,0.864-2.448,0.864
		c-2.232,0-3.168-1.872-3.168-4.248c-0.072-1.008,0.144-2.664,1.368-3.672c0.216-0.144,0.792-0.576,1.728-0.576
		c1.08-0.072,1.872,0.504,2.376,1.008c0.432,0.504,0.72,1.224,0.936,1.872h0.792c-0.216-1.584-0.216-2.016-0.288-3.6h-0.576
		l-0.216,0.72c-0.576-0.432-1.44-0.864-3.024-0.864c-2.88,0-4.536,1.728-5.184,3.384v3.6c0.72,2.16,2.808,3.384,4.968,3.384
		c1.296-0.072,2.52-0.432,3.6-1.368c0.288-0.36,0.504-0.72,0.792-1.008V230.544L94.032,230.544z M84.672,224.136v-0.72h0.288
		l-0.144,0.792L84.672,224.136z M84.672,223.416v0.72c-0.36-0.072-0.504-0.072-0.648,0c-0.504,0.144-0.504,0.504-0.648,1.08
		l-1.224,7.632l-1.512-0.216l-4.176-8.424c-0.072,0.648-0.072,0.648-0.144,1.224l-0.72,4.752c-0.144,0.792,0.216,0.864,1.152,1.008
		l-0.144,0.792l-3.744-0.576l0.072-0.72c0.72,0.072,0.936,0.144,1.152,0c0.288-0.144,0.288-0.36,0.36-0.864l1.008-6.408
		c0.144-0.576-0.216-0.648-0.648-0.792l-0.576-0.072l0.144-0.72l3.456,0.504l2.376,4.824c0.72,1.512,0.864,1.872,1.296,3.168
		c0-0.792,0.072-1.008,0.216-2.016l0.504-3.168c0.072-0.72,0.144-1.008-0.072-1.224c-0.216-0.216-0.432-0.288-1.08-0.36l0.072-0.72
		L84.672,223.416L84.672,223.416z M84.672,226.584c-0.072,0.216-0.144,0.36-0.144,0.504c0,0.432-0.144,0.936-0.144,1.296
		c0,0.648,0.072,1.296,0.288,1.8V226.584L84.672,226.584z M68.184,229.968v-0.72l0,0c0.648,0.144,0.648,0.144,0.864,0.144
		c0.072,0,0.36-0.072,0.36-0.216s0-0.216,0-0.36l-0.072-1.8l-1.152-0.36v-0.72l1.152,0.288l-0.072-1.584
		c0-0.936,0-1.368,0.216-2.232c-0.504,0.576-0.576,0.792-1.008,1.224l-0.288,0.36v-1.512l1.944-2.232l0.936,0.36l0.432,8.568
		c0.144,1.08,0.288,1.152,1.224,1.44l-0.216,0.72L68.184,229.968z M68.184,222.48v1.512l-1.224,1.584l1.224,0.36v0.72l-1.656-0.576
		l-1.08,1.44c-0.144,0.072-0.216,0.216-0.216,0.36c-0.072,0.216,0.072,0.432,0.36,0.504l0.576,0.216l-0.144,0.648l-2.16-0.648
		v-1.152c0.144-0.072,0.36-0.288,0.576-0.504L68.184,222.48L68.184,222.48z M68.184,229.248l-0.216,0.648l0.216,0.072V229.248
		L68.184,229.248z M63.864,221.256v-2.88c0.216,0.216,0.36,0.432,0.432,0.576l0.432-0.36l0.576,0.216l-1.152,2.52L63.864,221.256z
		 M63.864,218.376v2.88l-0.216-0.072c0.072-0.576,0.072-1.152-0.072-1.728c-0.36-0.504-0.864-1.08-1.512-1.296
		c-0.216-0.144-0.576-0.216-0.936-0.144c-0.432,0.072-0.72,0.36-0.792,0.648c-0.36,0.792,0.288,1.512,1.008,2.232
		c0.216,0.36,0.504,0.72,0.864,1.008c0.648,0.792,1.44,1.944,0.792,3.528c-0.432,0.864-1.224,1.584-2.232,1.8
		c-0.504,0.216-1.296,0.144-2.16-0.144c-1.44-0.576-1.8-1.584-2.016-2.016l-0.576,0.648l-0.648-0.288
		c0.864-1.8,1.008-2.016,1.44-3.024l0.504,0.216c-0.144,0.648-0.144,1.152,0.072,1.872c0.144,0.36,0.576,1.152,1.512,1.656
		c1.152,0.432,2.016-0.144,2.304-0.792c0-0.144,0.072-0.432,0.072-0.72c-0.072-0.504-0.432-0.936-1.008-1.584
		c-0.288-0.36-0.576-0.648-0.864-0.936c-0.72-0.864-1.584-1.872-1.008-3.456c0.72-1.584,2.448-1.944,3.888-1.368
		C63.072,217.584,63.504,218.016,63.864,218.376L63.864,218.376z M63.864,227.448v1.152l-1.44-0.504l0.216-0.648
		C63.216,227.592,63.504,227.664,63.864,227.448L63.864,227.448z M43.776,217.944v-1.44c0.36-0.504,0.576-0.792,1.008-1.296
		l0.432,0.36c-0.216,0.576-0.36,1.08-0.216,1.8c0.072,0.36,0.216,1.296,1.08,1.872c1.08,0.72,1.944,0.288,2.376-0.288
		c0.072-0.072,0.144-0.36,0.216-0.648c0.072-0.576-0.216-1.008-0.648-1.8c-0.216-0.36-0.432-0.72-0.648-1.08
		c-0.576-0.936-1.224-2.16-0.36-3.6c1.008-1.44,2.808-1.44,4.104-0.504c1.08,0.72,1.512,1.584,1.656,1.944l0.504-0.36l0.504,0.36
		l-1.656,2.304l-0.432-0.288c0.216-0.504,0.288-1.08,0.216-1.656c-0.216-0.576-0.576-1.224-1.152-1.656
		c-0.288-0.072-0.576-0.216-0.936-0.216c-0.432-0.072-0.72,0.216-0.936,0.432c-0.432,0.648,0.072,1.584,0.576,2.448
		c0.144,0.432,0.432,0.792,0.648,1.224c0.432,0.864,1.08,2.088,0.144,3.528c-0.576,0.72-1.512,1.368-2.52,1.296
		c-0.576,0.144-1.296-0.072-2.088-0.504c-1.296-0.864-1.512-1.872-1.656-2.376L43.776,217.944L43.776,217.944z M43.776,210.096v-3.6
		l0.288-0.144L44.856,207L43.776,210.096z M43.776,206.496v3.6l-1.656,5.04c-0.288,1.08-0.144,1.224,0.576,1.8l-0.432,0.576
		l-1.296-1.008v-5.04l0.216,0.144l0.504-1.512c0.36-0.864,0.504-1.296,0.936-2.088c-0.576,0.504-0.72,0.576-1.296,0.864l-0.36,0.288
		v-1.152L43.776,206.496L43.776,206.496z M43.776,216.504c-0.216,0.36-0.504,0.792-1.008,1.44l0.504,0.36l0.504-0.36V216.504
		L43.776,216.504z M40.968,204.84v-1.224l0.576,0.576L40.968,204.84z M40.968,203.616v1.224l-1.44,1.656l-0.576-0.576
		c0.288-0.288,0.648-0.792,0.72-1.44c0.216-0.864-0.288-1.296-0.72-1.728l-0.36-0.36l-5.256,5.184
		c-0.576,0.576-0.216,0.864,0.432,1.656l-0.504,0.432l-0.648-0.648v-3.528l4.464-4.536l-0.36-0.432
		c-0.216-0.216-0.432-0.432-0.792-0.576c-0.936-0.432-1.728,0.288-2.376,0.648l-0.504-0.504l2.304-2.016L40.968,203.616
		L40.968,203.616z M40.968,208.008l-4.536,2.52c-0.936,0.432-1.152,0.432-1.944-0.216l-0.504,0.648l2.952,2.304l0.504-0.576
		l-0.576-0.432c-0.144-0.144-0.288-0.36-0.144-0.576c0.072-0.072,0.216-0.216,0.432-0.216l1.512-1.008l2.232,1.872l-0.576,1.728
		c-0.072,0.144,0,0.216-0.144,0.288c-0.072,0.144-0.36,0.144-0.504,0.144c-0.144-0.072-0.144-0.072-0.648-0.432l-0.432,0.504
		l2.376,1.944v-5.04l-1.728-1.296l1.728-1.008V208.008L40.968,208.008z M32.616,198.216l0.504-0.432
		c0.72-0.576,0.936-0.36,1.656,0.432l0.576-0.432l-2.736-3.312V198.216z M32.616,194.472v3.744l-4.32,3.456v-2.664l3.744-3.024
		c0.576-0.432,0.36-0.648-0.288-1.44l0.576-0.432L32.616,194.472L32.616,194.472z M32.616,205.488v3.528l-2.808-2.736l0.504-0.504
		c0.72,0.72,0.936,0.936,1.584,0.432L32.616,205.488L32.616,205.488z M28.296,203.472V203.4h0.072L28.296,203.472L28.296,203.472z
		 M28.296,193.824c1.008-0.144,1.584-0.216,1.944-0.144c0.504,0,0.864,0.432,1.08,0.72l0.576-0.36l-2.016-3.312l-0.576,0.432
		c0.432,0.648,0.576,1.008,0.144,1.224c-0.072,0.072-0.288,0.144-0.504,0.216l-0.648,0.072V193.824L28.296,193.824z M28.296,188.784
		v-0.72l0.36,0.576L28.296,188.784z M28.296,188.064v0.72L28.008,189c-0.288-0.504-0.576-0.792-0.936-0.576
		c-0.144,0.072-0.36,0.288-0.504,0.504l-2.664,3.528c-0.288,0.288-0.432,0.504-0.576,0.72v-3.312l2.016-2.808
		c0.504-0.576,0.72-1.008,0.288-1.872l0.648-0.432L28.296,188.064L28.296,188.064z M28.296,192.672l-4.104,0.72
		c-0.432,0.072-0.648,0.072-0.864,0.144v1.08l4.176-0.72c0.288,0,0.576-0.072,0.792-0.072V192.672L28.296,192.672z M28.296,199.008
		v2.664l-0.144,0.144c-0.648,0.504-0.576,0.72,0.144,1.584v0.072l-0.504,0.432l-3.096-3.744l0.576-0.432
		c0.648,0.792,0.864,1.008,1.512,0.576L28.296,199.008L28.296,199.008z M23.328,184.248v-2.304h0.144
		c0.504-0.36,0.432-0.576-0.072-1.512l0.648-0.36l2.232,4.32l-0.648,0.36c-0.576-0.936-0.72-1.224-1.512-0.864L23.328,184.248
		L23.328,184.248z M23.328,180.288L23.904,180l-0.144-0.504h-0.432V180.288z M23.328,179.496v0.792
		c-1.008,0.432-1.512,0.648-2.736,1.224l-0.216-0.648c0.504-0.432,1.08-0.936,1.44-1.584c0.288-0.648,0.504-1.584,0.144-2.592
		c-0.36-0.864-1.008-1.224-1.152-1.368c-1.44-0.864-3.168-0.36-4.032,0c-2.232,0.936-3.672,2.448-2.88,4.536
		c0.36,0.72,0.936,1.512,1.656,1.944c0.792,0.432,1.512,0.504,1.872,0.576l-0.216,0.864c-0.648-0.144-1.152-0.216-1.8-0.504
		c-1.224-0.576-2.088-1.656-2.448-2.736c-1.08-2.592-0.144-5.616,2.952-6.768c0.432-0.144,0.792-0.216,1.224-0.36
		c1.872-0.216,4.464,0.576,5.544,3.528c0.648,1.44,0.504,2.376,0.36,3.168L23.328,179.496L23.328,179.496z M23.328,181.944
		l-5.976,3.096c-0.648,0.36-0.864,0.072-1.368-0.864l-0.648,0.36l2.304,4.32l0.576-0.36c-0.504-1.08-0.576-1.296,0.144-1.656
		l4.968-2.592V181.944L23.328,181.944z M23.328,189.864v3.312c-0.144,0.144-0.288,0.288-0.504,0.504
		c0.216-0.072,0.36-0.072,0.504-0.144v1.08l-2.232,0.36l-0.648-1.008L23.328,189.864z"/>
	<g>
		<path fill-rule="evenodd" clip-rule="evenodd" fill="#00A650" d="M135,201.672c-8.208,9-24.984,18.36-44.496,17.064v-17.064
			c0.648,0.072,1.368,0.144,2.088,0.216c3.096,0,6.336,0.504,9.072-0.504C110.016,198.288,122.4,194.904,135,201.672L135,201.672z
			 M90.504,198.144c3.888,0.432,7.488,0.216,10.872-0.792c9.36-1.296,11.448-6.624,37.224,1.08
			c8.712-8.424,14.544-20.088,17.352-30.24H90.504V198.144L90.504,198.144z M90.504,84.312v-1.296l2.736,1.296H90.504L90.504,84.312
			z M90.504,73.44v-6.984l34.632-17.784l1.296,0.072l47.592,24.696H90.504L90.504,73.44z M90.504,47.232v-5.616l12.888,5.616H90.504
			z M90.504,218.736L90.504,218.736c-20.16-1.296-38.088-8.352-44.64-16.632c15.12-11.088,29.952-1.8,44.64-0.432V218.736
			L90.504,218.736z M90.504,41.616v5.616H14.04L58.896,27.72L90.504,41.616L90.504,41.616z M90.504,66.456v6.984H76.896
			L90.504,66.456L90.504,66.456z M90.504,83.016L52.848,64.872l-40.896,19.44h78.552V83.016L90.504,83.016z M90.504,168.192H24.84
			c3.24,11.232,9.792,22.536,17.136,30.384c9.288-3.888,14.616-7.704,40.968-1.728c2.664,0.648,5.184,1.08,7.56,1.296V168.192z"/>
		<path fill-rule="evenodd" clip-rule="evenodd" fill="#FDD91E" d="M126.432,48.744c0.072,0,0.072,0,0.144,0
			c0-2.376,1.44-2.52,2.736-4.248c2.088-2.448,1.656-4.248-0.792-6.768c0.504,2.592,0.432,2.664,0.432,4.248
			c0,1.944-2.952,4.032-3.816,3.96c1.584-2.376,2.304-4.104,2.088-5.688c-0.072-1.224-1.44-2.808-1.872-4.464
			c-0.216-1.08,0.432-2.664,0.72-3.168c-0.864,0-2.52,2.088-2.736,3.456c-0.216,1.872,2.664,6.48,1.296,8.208l-0.648,1.368
			c-2.088,0-0.144-8.208-3.456-8.208c0.36,0.288,0.936,1.656,0.36,2.232c-2.088,6.768,2.88,8.064,4.248,9L126.432,48.744z"/>
		<path fill-rule="evenodd" clip-rule="evenodd" fill="#A12A30" d="M131.76,90.576l-14.04,0.216v11.376h-9.936v-11.16H93.672v11.736
			c-2.592,0-5.184,0.072-7.848,0.072V91.008H71.712v11.16h-9.936V90.792l-14.112-0.216l-0.216,25.92H37.8l-0.144-10.872
			l-14.904,0.072V154.8H61.92l0.144-24.408c0-6.552,4.824-14.76,10.584-18.072c5.112-2.952,11.592-5.112,17.28-5.544h-0.072
			c5.544,0.432,11.952,2.592,16.992,5.472c5.688,3.312,10.512,11.592,10.512,18.144l0.144,24.408h39.24v-49.104l-14.904-0.072
			l-0.144,10.872l-9.648-0.072L131.76,90.576z"/>
		<g>
			<path fill-rule="evenodd" clip-rule="evenodd" d="M106.344,154.008c2.376-1.656,4.896-4.392,6.336-6.768
				c0.864-1.44,1.224-2.736,1.224-4.392V132.12c-2.304-1.368-4.896-2.16-7.56-2.304v2.376c1.152,0.072,2.232,0.216,3.312,0.432
				l-3.312,4.248v3.528l5.328-6.84l0.144,9.216c-0.072,0.792-0.36,1.656-0.504,2.304c-0.72,2.664-2.376,4.536-4.968,6.408V154.008
				L106.344,154.008z M106.344,188.136h1.368v-2.448h-1.368V188.136z M99.432,158.544l-1.728-10.872l1.08,0.144
				c1.44,3.096,4.608,5.688,7.272,6.408c0.072-0.072,0.216-0.144,0.288-0.216v-2.52c-0.144,0.144-0.36,0.36-0.576,0.504
				c-2.016-1.008-3.672-2.448-4.752-4.536l5.328-7.056v-3.528l-5.976,7.92c-0.936-2.16-1.44-7.992-0.864-11.304
				c2.088-1.08,4.392-1.44,6.84-1.296v-2.376c-2.52-0.144-5.04,0.36-7.704,1.512l-7.272-2.016l-0.072-2.088l4.032-0.072
				l-0.576-6.624c-0.432-1.872-1.44-3.384-3.744-3.96l-0.72-1.944h-1.08v3.312c1.512-0.072,3.024,0.576,3.096,2.304h-3.096v1.8
				h3.096c-0.072,3.096-0.792,4.68-3.024,5.04h-0.072v7.344c0.072,0,0.144,0,0.288,0c1.224,0,1.944-0.36,2.16-2.592l2.808,0.576
				c0.576,4.608,0.288,8.856-1.8,12.672h-3.168h-0.288v2.088H93.6l0.72,9.216h-5.112v2.16h4.176
				c-0.936,0.144-1.728,0.288-2.232,0.576l6.84,29.016h8.352v-2.448h-0.792l-4.392-1.584l-2.664-25.416
				c-0.36-0.072-0.648-0.072-1.008-0.144H99.432z M89.208,114.624H88.56l-0.864,1.872c-2.016,0.792-3.024,2.16-3.6,3.816
				l-0.792,6.696l3.6,0.072l-0.216,2.088l-5.472,1.872l-3.528,9.072l-2.376-2.448l4.32-19.08l2.088-1.872l-0.792-6.264l-3.96,5.112
				l1.152,2.592l-4.104,18.432l-1.584-0.144l-1.224,3.6l1.512,1.008c-3.24,15.552-6.696,30.816-10.08,46.368l2.736,0.216
				c2.88-13.968,5.688-27.792,8.712-41.688l4.248,0.576l3.744-4.68l1.296,3.456l-2.448,13.248h1.512
				c-0.36,0.072-0.72,0.072-1.08,0.144l-4.176,25.416l-4.464,1.584h-2.16v2.448h9.792l8.352-29.016
				c-0.504-0.288-1.224-0.432-2.16-0.576h2.664v-2.16h-4.824l1.368-9.216h3.456v-2.088h-2.88c-2.16-3.816-2.376-8.064-1.8-12.672
				l2.808-0.576c0.144,2.016,0.792,2.52,1.872,2.592v-7.344c-2.016-0.072-2.88-2.088-3.168-5.04h3.168v-1.8h-3.096
				c0-1.296,1.512-2.16,3.096-2.304V114.624z"/>
			<path fill-rule="evenodd" clip-rule="evenodd" fill="none" stroke="#000000" stroke-width="0.216" d="M99.432,158.544
				l-1.728-10.872l1.08,0.144c1.44,3.096,4.608,5.688,7.272,6.408c2.376-1.584,5.184-4.536,6.624-6.984
				c0.864-1.44,1.224-2.736,1.224-4.392V132.12c-4.536-2.664-9.864-3.24-15.264-0.792l-7.272-2.016l-0.072-2.088l4.032-0.072
				l-0.576-6.624c-0.432-1.872-1.44-3.384-3.744-3.96l-0.72-1.944H88.56l-0.864,1.872c-2.016,0.792-3.024,2.16-3.6,3.816
				l-0.792,6.696l3.6,0.072l-0.216,2.088l-5.472,1.872l-3.528,9.072l-2.376-2.448l4.32-19.08l2.088-1.872l-0.792-6.264l-3.96,5.112
				l1.152,2.592l-4.104,18.432l-1.584-0.144l-1.224,3.6l1.512,1.008c-3.24,15.552-6.696,30.816-10.08,46.368l2.736,0.216
				c2.88-13.968,5.688-27.792,8.712-41.688l4.248,0.576l3.744-4.68l1.296,3.456l-2.448,13.248h1.512
				c-0.36,0.072-0.72,0.072-1.08,0.144l-4.176,25.416l-4.464,1.584h-2.16v2.448h9.792l8.352-29.016
				c-0.504-0.288-1.224-0.432-2.16-0.576h6.84c-0.936,0.144-1.728,0.288-2.232,0.576l6.84,29.016h9.72v-2.448h-2.16l-4.392-1.584
				l-2.664-25.416c-0.36-0.072-0.648-0.072-1.008-0.144H99.432L99.432,158.544z M101.016,147.456l10.656-13.896l0.144,9.216
				c-0.072,0.792-0.36,1.656-0.504,2.304c-0.792,2.808-2.664,4.824-5.544,6.912C103.752,150.984,102.096,149.544,101.016,147.456
				L101.016,147.456z M99.504,133.488c2.952-1.584,6.624-1.584,10.152-0.864l-9.288,12.168
				C99.432,142.632,98.928,136.8,99.504,133.488L99.504,133.488z M92.304,120.24h-6.192C86.112,117.648,92.16,116.784,92.304,120.24
				L92.304,120.24z M89.28,127.08c2.232-0.36,2.952-1.944,3.024-5.04H86.04C86.328,124.992,87.192,127.08,89.28,127.08L89.28,127.08
				z M89.496,145.08h-3.168c-2.16-3.816-2.376-8.064-1.8-12.672l2.808-0.576c0.144,2.232,0.936,2.592,2.16,2.592
				c1.224,0,1.944-0.36,2.16-2.592l2.808,0.576c0.576,4.608,0.288,8.856-1.8,12.672H89.496L89.496,145.08z M85.752,147.168H93.6
				l0.72,9.216h-9.936L85.752,147.168z"/>
		</g>
	</g>
	<path fill-rule="evenodd" clip-rule="evenodd" fill="#FFFFFF" d="M170.064,16.416v-2.808h1.368l-1.008-4.68
		c-0.072-0.144-0.072-0.432-0.144-0.72l-0.216-1.224V4.68h1.728l3.456,14.256h-2.736l-0.504-2.52H170.064z M170.064,4.68v2.304l0,0
		c-0.072,0.36-0.144,0.648-0.144,1.008c-0.072,0.288-0.144,0.576-0.216,0.936l-1.008,4.68h1.368v2.808h-1.944l-0.504,2.52h-2.736
		l3.456-14.256H170.064L170.064,4.68z M134.928,18.936v-2.88c0.576-0.072,0.936-0.144,1.224-0.36c0.216-0.216,0.36-0.648,0.36-1.152
		c0-0.576-0.072-1.008-0.36-1.296c-0.216-0.216-0.648-0.288-1.224-0.288v-2.592c0.36-0.072,0.648-0.144,0.792-0.288
		c0.288-0.216,0.36-0.576,0.36-1.152c0-0.504-0.072-0.864-0.36-1.08c-0.144-0.216-0.432-0.288-0.792-0.36V4.68
		c0.648,0,1.152,0.072,1.44,0.144c0.432,0.072,0.864,0.288,1.152,0.504c0.36,0.288,0.648,0.72,0.864,1.224
		c0.216,0.432,0.288,1.008,0.288,1.656c0,0.864-0.144,1.512-0.432,1.944c-0.288,0.504-0.792,0.864-1.368,1.08
		c0.72,0.072,1.224,0.432,1.656,1.08c0.36,0.648,0.576,1.512,0.576,2.592c0,0.72-0.072,1.368-0.36,2.016
		c-0.216,0.576-0.504,1.008-0.936,1.296c-0.36,0.288-0.792,0.432-1.224,0.576C136.152,18.864,135.648,18.936,134.928,18.936
		L134.928,18.936z M140.76,4.68v14.256h2.592l3.816-7.344c0.072-0.144,0.216-0.432,0.36-0.864c0.144-0.504,0.36-1.008,0.576-1.656
		c-0.072,0.576-0.144,1.152-0.144,1.584s-0.072,0.864-0.072,1.224v7.056h2.664V4.68h-2.664l-3.744,7.344
		c-0.072,0.144-0.216,0.432-0.36,0.936c-0.144,0.432-0.36,0.936-0.576,1.584c0.072-0.576,0.144-1.152,0.144-1.584
		c0-0.504,0-0.864,0-1.224V4.68H140.76L140.76,4.68z M155.232,16.416h3.6V4.68h2.592v11.736h2.736v1.44v1.08v3.096h-2.664v-3.096
		h-0.072h-2.592h-3.6h-0.936h-1.656V4.68h2.592V16.416z M134.928,4.68v2.808c-0.144,0-0.36,0-0.576,0h-0.576v2.88h0.576
		c0.216,0,0.432,0,0.576,0v2.592c0-0.072-0.072-0.072-0.144-0.072h-1.008v3.168h1.008c0,0,0.072,0,0.144,0v2.88
		c-0.216,0-0.504,0-0.864,0h-2.808V4.68h2.736C134.352,4.68,134.64,4.68,134.928,4.68L134.928,4.68z M124.2,19.368v-3.312
		c0.792,0,1.368-0.432,1.872-1.224s0.792-1.8,0.792-3.024c0-1.152-0.288-2.16-0.792-2.952s-1.152-1.224-1.872-1.224V4.32
		c0.72,0,1.44,0.216,2.088,0.576s1.224,0.936,1.728,1.656c0.504,0.648,0.864,1.512,1.152,2.376c0.288,0.936,0.36,1.872,0.36,2.88
		c0,1.08-0.072,2.016-0.36,2.952c-0.288,0.864-0.648,1.656-1.152,2.376c-0.504,0.72-1.08,1.224-1.728,1.656
		C125.568,19.152,124.92,19.368,124.2,19.368z M124.2,4.32v3.312l0,0c-0.72,0-1.368,0.432-1.872,1.224
		c-0.504,0.792-0.72,1.8-0.72,2.952c0,1.224,0.216,2.232,0.72,3.024c0.504,0.792,1.08,1.224,1.872,1.224l0,0v3.312l0,0
		c-0.72,0-1.368-0.216-2.016-0.576c-0.648-0.432-1.224-0.936-1.728-1.656c-0.504-0.72-0.936-1.512-1.224-2.448
		c-0.216-0.864-0.36-1.872-0.36-2.88c0-1.008,0.144-1.944,0.36-2.88c0.288-0.864,0.72-1.656,1.224-2.376
		c0.504-0.72,1.08-1.296,1.728-1.656C122.832,4.536,123.48,4.32,124.2,4.32L124.2,4.32L124.2,4.32z M114.12,14.256v-3.24
		c0.36,0,0.576-0.144,0.72-0.288c0.288-0.288,0.432-0.72,0.432-1.368c0-0.576-0.144-1.008-0.432-1.224
		c-0.144-0.216-0.36-0.288-0.72-0.36V4.68c0.648,0,1.152,0.072,1.512,0.216c0.432,0.144,0.792,0.432,1.152,0.792
		c0.36,0.432,0.648,1.008,0.792,1.656c0.216,0.648,0.288,1.368,0.288,2.16c0,0.864-0.072,1.584-0.288,2.232
		c-0.144,0.648-0.432,1.224-0.792,1.656c-0.288,0.288-0.648,0.504-1.008,0.648C115.416,14.184,114.84,14.256,114.12,14.256z
		 M114.12,4.68v3.096c-0.216,0-0.36-0.072-0.576-0.072h-0.576v3.384h0.504c0.288,0,0.432,0,0.648-0.072v3.24h-0.216h-0.432h-0.504
		v4.68h-2.52V4.68h2.808C113.544,4.68,113.832,4.68,114.12,4.68L114.12,4.68z M67.392,16.416v-2.808h1.368l-1.008-4.68
		c-0.072-0.144-0.072-0.432-0.144-0.72c-0.072-0.288-0.144-0.72-0.216-1.224V4.68h1.656l3.528,14.256H69.84l-0.504-2.52H67.392
		L67.392,16.416z M89.352,18.936h-2.52l-0.648-6.192c0-0.432-0.072-0.864-0.072-1.44c-0.072-0.504-0.072-1.08-0.072-1.728
		c-0.072,0.576-0.216,1.368-0.432,2.232c0,0.216-0.072,0.36-0.072,0.432l-1.368,6.696h-1.8L81,12.24
		c0-0.072-0.072-0.216-0.072-0.432c-0.216-0.864-0.288-1.656-0.36-2.232c-0.072,0.576-0.072,1.08-0.144,1.584
		c0,0.576-0.072,1.08-0.072,1.584l-0.648,6.192h-2.52L78.768,4.68h2.664l1.512,7.344c0,0.072,0.072,0.144,0.072,0.288
		c0.144,0.648,0.216,1.224,0.288,1.656c0-0.216,0-0.504,0.072-0.864c0.072-0.288,0.144-0.648,0.216-1.08l1.512-7.344h2.736
		L89.352,18.936L89.352,18.936z M90.792,4.68v14.256h2.664l3.744-7.344c0.072-0.144,0.216-0.432,0.36-0.864
		c0.216-0.504,0.36-1.008,0.576-1.656c-0.072,0.576-0.072,1.152-0.144,1.584c0,0.432,0,0.864,0,1.224v7.056h2.592V4.68h-2.592
		l-3.816,7.344c-0.072,0.144-0.144,0.432-0.36,0.936c-0.144,0.432-0.288,0.936-0.504,1.584c0.072-0.576,0.072-1.152,0.072-1.584
		c0.072-0.504,0.072-0.864,0.072-1.224V4.68H90.792L90.792,4.68z M104.112,18.936V8.064h-2.16V4.68h7.128v3.384h-2.232v10.872
		H104.112z M67.392,4.68v2.304l0,0c-0.072,0.36-0.144,0.648-0.144,1.008c-0.072,0.288-0.144,0.576-0.216,0.936l-1.008,4.68h1.368
		v2.808h-1.944l-0.504,2.52h-2.448h0.36l-0.36-0.576v-0.72l3.168-12.96H67.392z M62.496,17.64v0.72l-3.672-6.696l3.672-6.984h-3.168
		l-3.168,6.48V4.68h-2.664v14.256h2.664v-6.408l3.312,6.408h3.024h-0.288L62.496,17.64L62.496,17.64z M18.648,14.256v-3.24
		c0.36,0,0.576-0.144,0.72-0.288c0.288-0.288,0.432-0.72,0.432-1.368c0-0.576-0.144-1.008-0.432-1.224
		c-0.144-0.216-0.36-0.288-0.72-0.36V4.68c0.648,0,1.152,0.072,1.512,0.216c0.432,0.144,0.792,0.432,1.152,0.792
		c0.36,0.432,0.648,1.008,0.864,1.656c0.144,0.648,0.288,1.368,0.288,2.16c0,0.864-0.144,1.584-0.288,2.232
		c-0.216,0.648-0.504,1.224-0.864,1.656c-0.288,0.288-0.648,0.504-1.008,0.648C19.944,14.184,19.368,14.256,18.648,14.256
		L18.648,14.256z M23.832,18.936V4.68h6.12v3.096h-3.456v2.52h3.24v3.024h-3.24v2.448h3.456v3.168H23.832L23.832,18.936z
		 M43.2,18.936h-2.52l-0.576-6.192c-0.072-0.432-0.072-0.864-0.144-1.44c0-0.504-0.072-1.08-0.072-1.728
		c-0.072,0.576-0.216,1.368-0.36,2.232c-0.072,0.216-0.072,0.36-0.144,0.432l-1.296,6.696h-1.872l-1.368-6.696
		c0-0.072,0-0.216-0.072-0.432c-0.144-0.864-0.288-1.656-0.36-2.232c0,0.576-0.072,1.08-0.072,1.584
		c-0.072,0.576-0.072,1.08-0.144,1.584l-0.576,6.192h-2.52L32.616,4.68h2.736l1.512,7.344c0,0.072,0,0.144,0,0.288
		c0.144,0.648,0.216,1.224,0.288,1.656c0-0.216,0.072-0.504,0.072-0.864c0.072-0.288,0.144-0.648,0.216-1.08l1.512-7.344h2.736
		L43.2,18.936L43.2,18.936z M51.912,5.184v4.32c-0.36-0.648-0.72-1.08-1.08-1.368c-0.36-0.216-0.792-0.36-1.224-0.36
		c-0.72,0-1.368,0.36-1.872,1.152c-0.504,0.72-0.72,1.728-0.72,2.952c0,1.152,0.216,2.088,0.72,2.88
		c0.504,0.72,1.152,1.152,1.872,1.152c0.432,0,0.864-0.144,1.224-0.432c0.36-0.288,0.72-0.72,1.08-1.296v4.248
		c-0.432,0.288-0.864,0.504-1.224,0.648c-0.432,0.144-0.864,0.216-1.368,0.216s-1.008-0.072-1.512-0.288
		c-0.432-0.144-0.864-0.432-1.224-0.792c-0.792-0.72-1.368-1.656-1.728-2.736c-0.36-1.08-0.576-2.304-0.576-3.672
		c0-1.08,0.144-2.088,0.36-2.952c0.216-0.936,0.648-1.728,1.152-2.448c0.432-0.72,1.008-1.224,1.584-1.584
		C47.952,4.464,48.6,4.32,49.32,4.32c0.504,0,0.936,0.072,1.368,0.216C51.048,4.68,51.48,4.896,51.912,5.184z M13.392,5.184v4.32
		c-0.36-0.648-0.72-1.08-1.08-1.368c-0.36-0.216-0.792-0.36-1.224-0.36c-0.792,0-1.44,0.36-1.872,1.152
		c-0.504,0.72-0.72,1.728-0.72,2.952c0,1.152,0.216,2.088,0.72,2.88c0.504,0.72,1.152,1.152,1.872,1.152
		c0.432,0,0.864-0.144,1.224-0.432c0.36-0.288,0.72-0.72,1.08-1.296v4.248c-0.432,0.288-0.864,0.504-1.296,0.648
		c-0.432,0.144-0.864,0.216-1.296,0.216c-0.504,0-1.008-0.072-1.512-0.288c-0.432-0.144-0.864-0.432-1.224-0.792
		c-0.792-0.72-1.368-1.656-1.728-2.736C5.904,14.4,5.76,13.176,5.76,11.808c0-1.08,0.072-2.088,0.36-2.952
		C6.336,7.92,6.696,7.128,7.2,6.408c0.504-0.72,1.008-1.224,1.656-1.584C9.432,4.464,10.08,4.32,10.8,4.32
		c0.432,0,0.864,0.072,1.296,0.216C12.528,4.68,12.96,4.896,13.392,5.184L13.392,5.184z M18.648,4.68v3.096
		c-0.144,0-0.36-0.072-0.576-0.072h-0.576v3.384H18c0.288,0,0.432,0,0.648-0.072v3.24h-0.216H18h-0.504v4.68h-2.52V4.68h2.808
		C18.072,4.68,18.36,4.68,18.648,4.68z"/>
</g>
</svg>
